<?xml version="1.0" encoding="utf-8"?>
<svg version="1.1" id="Layer_1" xmlns="http://www.w3.org/2000/svg" xmlns:xlink="http://www.w3.org/1999/xlink" x="0px" y="0px"
	 viewBox="0 0 32 32" style="enable-background:new 0 0 32 32;" xml:space="preserve">
<style type="text/css">
	.st0{fill:#DF5349;}
	.st1{opacity:0.2;fill:#231F20;enable-background:new    ;}
	.st2{fill:#FFFFFF;}
	.st3{opacity:5.000000e-02;fill:#231F20;enable-background:new    ;}
	.st4{fill:#DDDDDD;}
</style>
<path class="st0" d="M32,16c0,8.8-7.2,16-16,16S0,24.8,0,16S7.2,0,16,0S32,7.2,32,16z"/>
<path class="st1" d="M24,7H8C6.9,7,6,7.9,6,9v16c0,1.1,0.9,2,2,2h16c1.1,0,2-0.9,2-2V9C26,7.9,25.1,7,24,7z"/>
<path class="st2" d="M24,6H8C6.9,6,6,6.9,6,8v16c0,1.1,0.9,2,2,2h16c1.1,0,2-0.9,2-2V8C26,6.9,25.1,6,24,6z"/>
<path class="st3" d="M8,9h16v16H8V9z"/>
<path class="st4" d="M8,8h16v16H8V8z"/>
<g>
	<path class="st1" d="M11,10.5h5v3h-5V10.5z"/>
	<path class="st1" d="M11,18.5h10v1H11V18.5z"/>
	<path class="st1" d="M17,12.5h4v1h-4V12.5z"/>
	<path class="st1" d="M17,10.5h4v1h-4V10.5z"/>
	<path class="st1" d="M11,14.5h5v3h-5V14.5z"/>
	<path class="st1" d="M17,16.5h4v1h-4V16.5z"/>
	<path class="st1" d="M11,20.5h10v1H11V20.5z"/>
	<path class="st1" d="M17,14.5h4v1h-4V14.5z"/>
</g>
</svg>
